<svg xmlns="http://www.w3.org/2000/svg" xmlns:xlink="http://www.w3.org/1999/xlink" width="500" zoomAndPan="magnify" viewBox="0 0 375 374.999991" height="500" preserveAspectRatio="xMidYMid meet" version="1.0"><path fill="#bdd5ea" d="M 118.75 112.5 L 81.25 112.5 L 75 162.5 L 56.25 112.5 L 18.75 112.5 C 11.84375 112.5 6.25 106.90625 6.25 100 L 6.25 31.25 C 6.25 24.34375 11.84375 18.75 18.75 18.75 L 118.75 18.75 " fill-opacity="1" fill-rule="nonzero"/><path fill="#fe5f55" d="M 71.648438 48.648438 L 62.5 57.882812 L 53.351562 48.644531 C 48.292969 43.542969 40.101562 43.542969 35.042969 48.644531 C 29.988281 53.742188 29.988281 62.011719 35.042969 67.113281 L 62.5 94.824219 L 89.957031 67.117188 C 95.011719 62.019531 95.011719 53.75 89.957031 48.648438 C 84.90625 43.550781 76.707031 43.550781 71.648438 48.648438 Z M 71.648438 48.648438 " fill-opacity="1" fill-rule="nonzero"/><path fill="#eaeaea" d="M 231.25 118.75 L 175 118.75 L 181.25 175 L 150 118.75 L 131.25 118.75 C 124.34375 118.75 118.75 113.15625 118.75 106.25 L 118.75 18.75 C 118.75 11.84375 124.34375 6.25 131.25 6.25 L 231.25 6.25 C 238.15625 6.25 243.75 11.84375 243.75 18.75 L 243.75 106.25 C 243.75 113.15625 238.15625 118.75 231.25 118.75 Z M 231.25 118.75 " fill-opacity="1" fill-rule="nonzero"/><path fill="#bdd5ea" d="M 250 18.75 L 356.25 18.75 C 363.125 18.75 368.75 24.375 368.75 31.25 L 368.75 100 C 368.75 106.875 363.125 112.5 356.25 112.5 L 331.25 112.5 L 306.25 162.5 L 306.25 112.5 L 243.75 112.5 " fill-opacity="1" fill-rule="nonzero"/><path fill="#577399" d="M 349.113281 298.332031 C 342.425781 291.644531 334.363281 286.332031 325.425781 282.894531 L 275.550781 282.894531 C 249.925781 292.832031 231.738281 317.769531 231.738281 346.957031 L 231.738281 375 L 369.238281 375 L 369.238281 346.957031 C 369.238281 327.957031 361.550781 310.769531 349.113281 298.332031 Z M 349.113281 298.332031 " fill-opacity="1" fill-rule="nonzero"/><path fill="#577399" d="M 123.625 298.332031 C 116.9375 291.644531 108.875 286.332031 99.9375 282.894531 L 50.0625 282.894531 C 24.4375 292.832031 6.25 317.769531 6.25 346.957031 L 6.25 375 L 143.75 375 L 143.75 346.957031 C 143.75 327.957031 136.0625 310.769531 123.625 298.332031 Z M 123.625 298.332031 " fill-opacity="1" fill-rule="nonzero"/><path fill="#495867" d="M 236.125 301.375 C 229.4375 294.6875 221.375 289.375 212.4375 285.9375 L 162.5625 285.9375 C 136.9375 295.875 118.75 320.8125 118.75 350 L 118.75 375 L 256.25 375 L 256.25 350 C 256.25 331 248.5625 313.8125 236.125 301.375 Z M 236.125 301.375 " fill-opacity="1" fill-rule="nonzero"/><path fill="#ffdbac" d="M 231.25 250 C 231.25 251.433594 231.179688 252.863281 231.039062 254.289062 C 230.898438 255.714844 230.6875 257.128906 230.410156 258.535156 C 230.128906 259.941406 229.78125 261.328125 229.367188 262.699219 C 228.949219 264.070312 228.46875 265.417969 227.917969 266.742188 C 227.371094 268.066406 226.757812 269.359375 226.085938 270.625 C 225.410156 271.886719 224.671875 273.113281 223.875 274.304688 C 223.082031 275.496094 222.226562 276.648438 221.320312 277.753906 C 220.410156 278.863281 219.449219 279.921875 218.4375 280.9375 C 217.421875 281.949219 216.363281 282.910156 215.253906 283.820312 C 214.148438 284.726562 212.996094 285.582031 211.804688 286.375 C 210.613281 287.171875 209.386719 287.910156 208.125 288.582031 C 206.859375 289.257812 205.566406 289.871094 204.242188 290.417969 C 202.917969 290.96875 201.570312 291.449219 200.199219 291.867188 C 198.828125 292.28125 197.441406 292.628906 196.035156 292.910156 C 194.628906 293.1875 193.214844 293.398438 191.789062 293.539062 C 190.363281 293.679688 188.933594 293.75 187.5 293.75 C 186.066406 293.75 184.636719 293.679688 183.210938 293.539062 C 181.785156 293.398438 180.371094 293.1875 178.964844 292.910156 C 177.558594 292.628906 176.171875 292.28125 174.800781 291.867188 C 173.429688 291.449219 172.082031 290.96875 170.757812 290.417969 C 169.433594 289.871094 168.140625 289.257812 166.875 288.585938 C 165.613281 287.910156 164.386719 287.171875 163.195312 286.375 C 162.003906 285.582031 160.851562 284.726562 159.746094 283.820312 C 158.636719 282.910156 157.578125 281.949219 156.5625 280.9375 C 155.550781 279.921875 154.589844 278.863281 153.679688 277.753906 C 152.773438 276.648438 151.917969 275.496094 151.125 274.304688 C 150.328125 273.113281 149.589844 271.886719 148.914062 270.625 C 148.242188 269.359375 147.628906 268.066406 147.082031 266.742188 C 146.53125 265.417969 146.050781 264.070312 145.632812 262.699219 C 145.21875 261.328125 144.871094 259.941406 144.589844 258.535156 C 144.3125 257.128906 144.101562 255.714844 143.960938 254.289062 C 143.820312 252.863281 143.75 251.433594 143.75 250 C 143.75 248.566406 143.820312 247.136719 143.960938 245.710938 C 144.101562 244.285156 144.3125 242.871094 144.589844 241.464844 C 144.871094 240.058594 145.21875 238.671875 145.632812 237.300781 C 146.050781 235.929688 146.53125 234.582031 147.082031 233.257812 C 147.628906 231.933594 148.242188 230.640625 148.914062 229.375 C 149.589844 228.113281 150.328125 226.886719 151.125 225.695312 C 151.917969 224.503906 152.773438 223.351562 153.679688 222.246094 C 154.589844 221.136719 155.550781 220.078125 156.5625 219.0625 C 157.578125 218.050781 158.636719 217.089844 159.746094 216.179688 C 160.851562 215.273438 162.003906 214.417969 163.195312 213.625 C 164.386719 212.828125 165.613281 212.089844 166.875 211.414062 C 168.140625 210.742188 169.433594 210.128906 170.757812 209.582031 C 172.082031 209.03125 173.429688 208.550781 174.800781 208.132812 C 176.171875 207.71875 177.558594 207.371094 178.964844 207.089844 C 180.371094 206.8125 181.785156 206.601562 183.210938 206.460938 C 184.636719 206.320312 186.066406 206.25 187.5 206.25 C 188.933594 206.25 190.363281 206.320312 191.789062 206.460938 C 193.214844 206.601562 194.628906 206.8125 196.035156 207.089844 C 197.441406 207.371094 198.828125 207.71875 200.199219 208.132812 C 201.570312 208.550781 202.917969 209.03125 204.242188 209.582031 C 205.566406 210.128906 206.859375 210.742188 208.125 211.414062 C 209.386719 212.089844 210.613281 212.828125 211.804688 213.625 C 212.996094 214.417969 214.148438 215.273438 215.253906 216.179688 C 216.363281 217.089844 217.421875 218.050781 218.4375 219.0625 C 219.449219 220.078125 220.410156 221.136719 221.320312 222.246094 C 222.226562 223.351562 223.082031 224.503906 223.875 225.695312 C 224.671875 226.886719 225.410156 228.113281 226.085938 229.375 C 226.757812 230.640625 227.371094 231.933594 227.917969 233.257812 C 228.46875 234.582031 228.949219 235.929688 229.367188 237.300781 C 229.78125 238.671875 230.128906 240.058594 230.410156 241.464844 C 230.6875 242.871094 230.898438 244.285156 231.039062 245.710938 C 231.179688 247.136719 231.25 248.566406 231.25 250 Z M 231.25 250 " fill-opacity="1" fill-rule="nonzero"/><path fill="#ffdbac" d="M 343.75 243.75 C 343.75 245.183594 343.679688 246.613281 343.539062 248.039062 C 343.398438 249.464844 343.1875 250.878906 342.910156 252.285156 C 342.628906 253.691406 342.28125 255.078125 341.867188 256.449219 C 341.449219 257.820312 340.96875 259.167969 340.417969 260.492188 C 339.871094 261.816406 339.257812 263.109375 338.585938 264.375 C 337.910156 265.636719 337.171875 266.863281 336.375 268.054688 C 335.582031 269.246094 334.726562 270.398438 333.820312 271.503906 C 332.910156 272.613281 331.949219 273.671875 330.9375 274.6875 C 329.921875 275.699219 328.863281 276.660156 327.753906 277.570312 C 326.648438 278.476562 325.496094 279.332031 324.304688 280.125 C 323.113281 280.921875 321.886719 281.660156 320.625 282.335938 C 319.359375 283.007812 318.066406 283.621094 316.742188 284.167969 C 315.417969 284.71875 314.070312 285.199219 312.699219 285.617188 C 311.328125 286.03125 309.941406 286.378906 308.535156 286.660156 C 307.128906 286.9375 305.714844 287.148438 304.289062 287.289062 C 302.863281 287.429688 301.433594 287.5 300 287.5 C 298.566406 287.5 297.136719 287.429688 295.710938 287.289062 C 294.285156 287.148438 292.871094 286.9375 291.464844 286.660156 C 290.058594 286.378906 288.671875 286.03125 287.300781 285.617188 C 285.929688 285.199219 284.582031 284.71875 283.257812 284.167969 C 281.933594 283.621094 280.640625 283.007812 279.375 282.335938 C 278.113281 281.660156 276.886719 280.921875 275.695312 280.125 C 274.503906 279.332031 273.351562 278.476562 272.246094 277.570312 C 271.136719 276.660156 270.078125 275.699219 269.0625 274.6875 C 268.050781 273.671875 267.089844 272.613281 266.179688 271.503906 C 265.273438 270.398438 264.417969 269.246094 263.625 268.054688 C 262.828125 266.863281 262.089844 265.636719 261.414062 264.375 C 260.742188 263.109375 260.128906 261.816406 259.582031 260.492188 C 259.03125 259.167969 258.550781 257.820312 258.132812 256.449219 C 257.71875 255.078125 257.371094 253.691406 257.089844 252.285156 C 256.8125 250.878906 256.601562 249.464844 256.460938 248.039062 C 256.320312 246.613281 256.25 245.183594 256.25 243.75 C 256.25 242.316406 256.320312 240.886719 256.460938 239.460938 C 256.601562 238.035156 256.8125 236.621094 257.089844 235.214844 C 257.371094 233.808594 257.71875 232.421875 258.132812 231.050781 C 258.550781 229.679688 259.03125 228.332031 259.582031 227.007812 C 260.128906 225.683594 260.742188 224.390625 261.414062 223.125 C 262.089844 221.863281 262.828125 220.636719 263.625 219.445312 C 264.417969 218.253906 265.273438 217.101562 266.179688 215.996094 C 267.089844 214.886719 268.050781 213.828125 269.0625 212.8125 C 270.078125 211.800781 271.136719 210.839844 272.246094 209.929688 C 273.351562 209.023438 274.503906 208.167969 275.695312 207.375 C 276.886719 206.578125 278.113281 205.839844 279.375 205.164062 C 280.640625 204.492188 281.933594 203.878906 283.257812 203.332031 C 284.582031 202.78125 285.929688 202.300781 287.300781 201.882812 C 288.671875 201.46875 290.058594 201.121094 291.464844 200.839844 C 292.871094 200.5625 294.285156 200.351562 295.710938 200.210938 C 297.136719 200.070312 298.566406 200 300 200 C 301.433594 200 302.863281 200.070312 304.289062 200.210938 C 305.714844 200.351562 307.128906 200.5625 308.535156 200.839844 C 309.941406 201.121094 311.328125 201.46875 312.699219 201.882812 C 314.070312 202.300781 315.417969 202.78125 316.742188 203.332031 C 318.066406 203.878906 319.359375 204.492188 320.625 205.164062 C 321.886719 205.839844 323.113281 206.578125 324.304688 207.375 C 325.496094 208.167969 326.648438 209.023438 327.753906 209.929688 C 328.863281 210.839844 329.921875 211.800781 330.9375 212.8125 C 331.949219 213.828125 332.910156 214.886719 333.820312 215.996094 C 334.726562 217.101562 335.582031 218.253906 336.375 219.445312 C 337.171875 220.636719 337.910156 221.863281 338.585938 223.125 C 339.257812 224.390625 339.871094 225.683594 340.417969 227.007812 C 340.96875 228.332031 341.449219 229.679688 341.867188 231.050781 C 342.28125 232.421875 342.628906 233.808594 342.910156 235.214844 C 343.1875 236.621094 343.398438 238.035156 343.539062 239.460938 C 343.679688 240.886719 343.75 242.316406 343.75 243.75 Z M 343.75 243.75 " fill-opacity="1" fill-rule="nonzero"/><path fill="#ffdbac" d="M 118.75 243.75 C 118.75 245.183594 118.679688 246.613281 118.539062 248.039062 C 118.398438 249.464844 118.1875 250.878906 117.910156 252.285156 C 117.628906 253.691406 117.28125 255.078125 116.867188 256.449219 C 116.449219 257.820312 115.96875 259.167969 115.417969 260.492188 C 114.871094 261.816406 114.257812 263.109375 113.585938 264.375 C 112.910156 265.636719 112.171875 266.863281 111.375 268.054688 C 110.582031 269.246094 109.726562 270.398438 108.820312 271.503906 C 107.910156 272.613281 106.949219 273.671875 105.9375 274.6875 C 104.921875 275.699219 103.863281 276.660156 102.753906 277.570312 C 101.648438 278.476562 100.496094 279.332031 99.304688 280.125 C 98.113281 280.921875 96.886719 281.660156 95.625 282.335938 C 94.359375 283.007812 93.066406 283.621094 91.742188 284.167969 C 90.417969 284.71875 89.070312 285.199219 87.699219 285.617188 C 86.328125 286.03125 84.941406 286.378906 83.535156 286.660156 C 82.128906 286.9375 80.714844 287.148438 79.289062 287.289062 C 77.863281 287.429688 76.433594 287.5 75 287.5 C 73.566406 287.5 72.136719 287.429688 70.710938 287.289062 C 69.285156 287.148438 67.871094 286.9375 66.464844 286.660156 C 65.058594 286.378906 63.671875 286.03125 62.300781 285.617188 C 60.929688 285.199219 59.582031 284.71875 58.257812 284.167969 C 56.933594 283.621094 55.640625 283.007812 54.375 282.335938 C 53.113281 281.660156 51.886719 280.921875 50.695312 280.125 C 49.503906 279.332031 48.351562 278.476562 47.246094 277.570312 C 46.136719 276.660156 45.078125 275.699219 44.0625 274.6875 C 43.050781 273.671875 42.089844 272.613281 41.179688 271.503906 C 40.273438 270.398438 39.417969 269.246094 38.625 268.054688 C 37.828125 266.863281 37.089844 265.636719 36.414062 264.375 C 35.742188 263.109375 35.128906 261.816406 34.582031 260.492188 C 34.03125 259.167969 33.550781 257.820312 33.132812 256.449219 C 32.71875 255.078125 32.371094 253.691406 32.089844 252.285156 C 31.8125 250.878906 31.601562 249.464844 31.460938 248.039062 C 31.320312 246.613281 31.25 245.183594 31.25 243.75 C 31.25 242.316406 31.320312 240.886719 31.460938 239.460938 C 31.601562 238.035156 31.8125 236.621094 32.089844 235.214844 C 32.371094 233.808594 32.71875 232.421875 33.132812 231.050781 C 33.550781 229.679688 34.03125 228.332031 34.582031 227.007812 C 35.128906 225.683594 35.742188 224.390625 36.414062 223.125 C 37.089844 221.863281 37.828125 220.636719 38.625 219.445312 C 39.417969 218.253906 40.273438 217.101562 41.179688 215.996094 C 42.089844 214.886719 43.050781 213.828125 44.0625 212.8125 C 45.078125 211.800781 46.136719 210.839844 47.246094 209.929688 C 48.351562 209.023438 49.503906 208.167969 50.695312 207.375 C 51.886719 206.578125 53.113281 205.839844 54.375 205.164062 C 55.640625 204.492188 56.933594 203.878906 58.257812 203.332031 C 59.582031 202.78125 60.929688 202.300781 62.300781 201.882812 C 63.671875 201.46875 65.058594 201.121094 66.464844 200.839844 C 67.871094 200.5625 69.285156 200.351562 70.710938 200.210938 C 72.136719 200.070312 73.566406 200 75 200 C 76.433594 200 77.863281 200.070312 79.289062 200.210938 C 80.714844 200.351562 82.128906 200.5625 83.535156 200.839844 C 84.941406 201.121094 86.328125 201.46875 87.699219 201.882812 C 89.070312 202.300781 90.417969 202.78125 91.742188 203.332031 C 93.066406 203.878906 94.359375 204.492188 95.625 205.164062 C 96.886719 205.839844 98.113281 206.578125 99.304688 207.375 C 100.496094 208.167969 101.648438 209.023438 102.753906 209.929688 C 103.863281 210.839844 104.921875 211.800781 105.9375 212.8125 C 106.949219 213.828125 107.910156 214.886719 108.820312 215.996094 C 109.726562 217.101562 110.582031 218.253906 111.375 219.445312 C 112.171875 220.636719 112.910156 221.863281 113.585938 223.125 C 114.257812 224.390625 114.871094 225.683594 115.417969 227.007812 C 115.96875 228.332031 116.449219 229.679688 116.867188 231.050781 C 117.28125 232.421875 117.628906 233.808594 117.910156 235.214844 C 118.1875 236.621094 118.398438 238.035156 118.539062 239.460938 C 118.679688 240.886719 118.75 242.316406 118.75 243.75 Z M 118.75 243.75 " fill-opacity="1" fill-rule="nonzero"/><path fill="#000000" d="M 12.5 343.75 C 12.5 319.167969 27.289062 296.644531 49.550781 286.710938 C 57.019531 291.148438 65.699219 293.75 75 293.75 C 84.28125 293.75 92.949219 291.164062 100.40625 286.738281 C 107.324219 289.800781 113.800781 294.144531 119.207031 299.542969 C 121.726562 302.0625 123.863281 304.757812 125.8125 307.511719 C 117.355469 319.800781 112.5 334.5625 112.5 350 L 112.5 375 L 125 375 L 125 350 C 125 325.417969 139.789062 302.894531 162.050781 292.960938 C 169.519531 297.398438 178.199219 300 187.5 300 C 196.78125 300 205.449219 297.414062 212.90625 292.988281 C 219.824219 296.050781 226.300781 300.394531 231.707031 305.792969 C 243.507812 317.59375 250 333.292969 250 350 L 250 375 L 262.5 375 L 262.5 350 C 262.5 334.542969 257.824219 319.832031 249.210938 307.40625 C 255.625 298.4375 264.445312 291.257812 274.570312 286.726562 C 282.03125 291.15625 290.707031 293.75 300 293.75 C 309.28125 293.75 317.949219 291.164062 325.40625 286.738281 C 332.324219 289.800781 338.800781 294.144531 344.207031 299.542969 C 356.007812 311.34375 362.5 327.042969 362.5 343.75 L 362.5 375 L 375 375 L 375 343.75 C 375 323.707031 367.207031 304.867188 353.042969 290.707031 C 348.074219 285.738281 342.332031 281.53125 336.195312 278.144531 C 344.726562 269.175781 350 257.074219 350 243.75 C 350 216.179688 327.570312 193.75 300 193.75 C 272.429688 193.75 250 216.179688 250 243.75 C 250 257.082031 255.273438 269.175781 263.804688 278.148438 C 255.007812 283.023438 247.238281 289.632812 241.042969 297.507812 C 240.867188 297.332031 240.71875 297.132812 240.542969 296.957031 C 235.574219 291.988281 229.832031 287.78125 223.695312 284.394531 C 232.226562 275.425781 237.5 263.324219 237.5 250 C 237.5 222.429688 215.070312 200 187.5 200 C 159.929688 200 137.5 222.429688 137.5 250 C 137.5 263.320312 142.769531 275.40625 151.289062 284.375 C 144.882812 287.917969 139.105469 292.375 134.074219 297.523438 C 132.230469 295.167969 130.230469 292.886719 128.050781 290.699219 C 123.082031 285.730469 117.335938 281.523438 111.199219 278.136719 C 119.726562 269.175781 125 257.074219 125 243.75 C 125 216.179688 102.570312 193.75 75 193.75 C 47.429688 193.75 25 216.179688 25 243.75 C 25 257.070312 30.269531 269.15625 38.789062 278.125 C 15.257812 291.164062 0 316.394531 0 343.75 L 0 375 L 12.5 375 Z M 262.5 243.75 C 262.5 223.070312 279.320312 206.25 300 206.25 C 320.679688 206.25 337.5 223.070312 337.5 243.75 C 337.5 264.429688 320.679688 281.25 300 281.25 C 279.320312 281.25 262.5 264.429688 262.5 243.75 Z M 150 250 C 150 229.320312 166.820312 212.5 187.5 212.5 C 208.179688 212.5 225 229.320312 225 250 C 225 270.679688 208.179688 287.5 187.5 287.5 C 166.820312 287.5 150 270.679688 150 250 Z M 37.5 243.75 C 37.5 223.070312 54.320312 206.25 75 206.25 C 95.679688 206.25 112.5 223.070312 112.5 243.75 C 112.5 264.429688 95.679688 281.25 75 281.25 C 54.320312 281.25 37.5 264.429688 37.5 243.75 Z M 37.5 243.75 " fill-opacity="1" fill-rule="nonzero"/><path fill="#000000" d="M 18.75 118.75 L 51.917969 118.75 L 69.148438 164.695312 C 70.070312 167.15625 72.417969 168.75 74.992188 168.75 C 75.238281 168.75 75.480469 168.738281 75.730469 168.707031 C 78.585938 168.367188 80.84375 166.125 81.199219 163.273438 L 86.769531 118.75 L 117.375 118.75 C 120.804688 122.554688 125.730469 125 131.25 125 L 146.320312 125 L 175.789062 178.039062 C 176.914062 180.0625 179.03125 181.25 181.25 181.25 C 181.886719 181.25 182.519531 181.15625 183.148438 180.957031 C 185.988281 180.050781 187.792969 177.269531 187.460938 174.3125 L 181.980469 125 L 231.25 125 C 236.769531 125 241.6875 122.554688 245.125 118.75 L 300.730469 118.75 L 300.050781 163.273438 C 300.40625 166.132812 302.664062 168.367188 305.519531 168.707031 C 305.769531 168.738281 306.011719 168.75 306.257812 168.75 C 308.832031 168.75 311.179688 167.15625 312.105469 164.695312 L 335.582031 118.75 L 356.25 118.75 C 366.585938 118.75 375 110.335938 375 100 L 375 31.25 C 375 20.914062 366.585938 12.5 356.25 12.5 L 248.851562 12.5 C 246.261719 5.242188 239.386719 0 231.25 0 L 131.25 0 C 123.113281 0 116.238281 5.242188 113.648438 12.5 L 18.75 12.5 C 8.414062 12.5 0 20.914062 0 31.25 L 0 100 C 0 110.335938 8.414062 118.75 18.75 118.75 Z M 250 25 L 356.25 25 C 359.699219 25 362.5 27.804688 362.5 31.25 L 362.5 100 C 362.5 103.445312 359.699219 106.25 356.25 106.25 L 331.25 106.25 C 328.644531 106.25 326.3125 107.867188 325.394531 110.304688 L 315.554688 136.554688 L 312.449219 111.726562 C 312.0625 108.59375 309.398438 106.25 306.25 106.25 L 250 106.25 Z M 125 18.75 C 125 15.304688 127.800781 12.5 131.25 12.5 L 231.25 12.5 C 234.699219 12.5 237.5 15.304688 237.5 18.75 L 237.5 106.25 C 237.5 109.695312 234.699219 112.5 231.25 112.5 L 175 112.5 C 173.226562 112.5 171.523438 113.257812 170.34375 114.582031 C 169.164062 115.90625 168.59375 117.675781 168.789062 119.4375 L 171.601562 144.761719 L 155.460938 115.710938 C 154.363281 113.730469 152.269531 112.5 150 112.5 L 131.25 112.5 C 127.800781 112.5 125 109.695312 125 106.25 Z M 12.5 31.25 C 12.5 27.804688 15.300781 25 18.75 25 L 112.5 25 L 112.5 106.25 L 81.25 106.25 C 78.101562 106.25 75.4375 108.59375 75.050781 111.726562 L 71.945312 136.554688 L 62.105469 110.304688 C 61.1875 107.867188 58.855469 106.25 56.25 106.25 L 18.75 106.25 C 15.300781 106.25 12.5 103.445312 12.5 100 Z M 12.5 31.25 " fill-opacity="1" fill-rule="nonzero"/><path fill="#000000" d="M 137.5 37.5 L 200 37.5 L 200 50 L 137.5 50 Z M 137.5 37.5 " fill-opacity="1" fill-rule="nonzero"/><path fill="#000000" d="M 212.5 37.5 L 225 37.5 L 225 50 L 212.5 50 Z M 212.5 37.5 " fill-opacity="1" fill-rule="nonzero"/><path fill="#000000" d="M 137.5 75 L 175 75 L 175 87.5 L 137.5 87.5 Z M 137.5 75 " fill-opacity="1" fill-rule="nonzero"/><path fill="#000000" d="M 187.5 75 L 225 75 L 225 87.5 L 187.5 87.5 Z M 187.5 75 " fill-opacity="1" fill-rule="nonzero"/><path fill="#000000" d="M 332.757812 39.679688 L 299.644531 78.304688 L 285.667969 64.332031 L 270.582031 73.167969 L 295.582031 91.917969 C 296.75 93.09375 298.34375 93.75 300 93.75 C 300.082031 93.75 300.15625 93.75 300.238281 93.742188 C 301.976562 93.679688 303.613281 92.886719 304.742188 91.570312 L 342.242188 47.820312 Z M 332.757812 39.679688 " fill-opacity="1" fill-rule="nonzero"/><path fill="#000000" d="M 58.0625 99.21875 C 59.238281 100.398438 60.832031 101.070312 62.5 101.070312 C 64.167969 101.070312 65.761719 100.40625 66.9375 99.21875 L 94.398438 71.511719 C 101.851562 63.992188 101.851562 51.761719 94.398438 44.242188 C 87.144531 36.917969 74.46875 36.929688 67.21875 44.242188 L 62.5 49.007812 L 57.78125 44.25 C 50.539062 36.9375 37.855469 36.925781 30.601562 44.25 C 23.148438 51.769531 23.148438 64 30.601562 71.519531 Z M 39.476562 53.050781 C 40.738281 51.773438 42.414062 51.074219 44.1875 51.074219 C 45.96875 51.074219 47.644531 51.773438 48.90625 53.050781 L 58.0625 62.289062 C 60.40625 64.65625 64.59375 64.65625 66.9375 62.289062 L 76.09375 53.050781 C 78.613281 50.5 82.992188 50.492188 85.523438 53.050781 C 88.167969 55.710938 88.167969 60.054688 85.523438 62.71875 L 62.5 85.945312 L 39.476562 62.71875 C 36.835938 60.050781 36.835938 55.710938 39.476562 53.050781 Z M 39.476562 53.050781 " fill-opacity="1" fill-rule="nonzero"/></svg>